HIERARCHY
ROOT root
{
	OFFSET	0	13.1	24.9
	CHANNELS 6  Xposition Yposition Zposition Xrotation Yrotation Zrotation
	JOINT spine_1
	{
		OFFSET	0	9.99999	0
		CHANNELS 3  Xrotation Yrotation Zrotation
		JOINT spine_2
		{
			OFFSET	0	112	-10
			CHANNELS 3  Xrotation Yrotation Zrotation
			JOINT spine_3
			{
				OFFSET	0	206.5	19.3
				CHANNELS 3  Xrotation Yrotation Zrotation
				JOINT spine_4
				{
					OFFSET	0	110.4	14.6
					CHANNELS 3  Xrotation Yrotation Zrotation
					JOINT neck_1
					{
						OFFSET	0	71.8	-50.3
						CHANNELS 3  Xrotation Yrotation Zrotation
						JOINT neck_2
						{
							OFFSET	0	86.2	-25.8
							CHANNELS 3  Xrotation Yrotation Zrotation
							JOINT head_ee
							{
								OFFSET	0	179.8	-8.7
								CHANNELS 3  Xrotation Yrotation Zrotation
								End Site
								{
									OFFSET	1	0	0
								}
							}
						}
					}
					JOINT left_clavicle
					{
						OFFSET	-43.2	22.4	-70.8
						CHANNELS 3  Xrotation Yrotation Zrotation
						JOINT left_shoulder
						{
							OFFSET	-93.9	-5.79999	48.7
							CHANNELS 3  Xrotation Yrotation Zrotation
							JOINT left_elbow
							{
								OFFSET	-291.4	-30.8	15.2
								CHANNELS 3  Xrotation Yrotation Zrotation
								JOINT left_lowarm_twist
								{
									OFFSET	-110.7	-3.89999	13.6
									CHANNELS 3  Xrotation Yrotation Zrotation
									JOINT left_hand
									{
										OFFSET	-110.7	-3.89999	13.6
										CHANNELS 3  Xrotation Yrotation Zrotation
										JOINT left_ee
										{
											OFFSET	-80.8	-5.10001	12.1
											CHANNELS 3  Xrotation Yrotation Zrotation
											End Site
											{
												OFFSET	1	0	0
											}
										}
									}
								}
							}
						}
					}
					JOINT right_clavicle
					{
						OFFSET	43.2	22.4	-70.8
						CHANNELS 3  Xrotation Yrotation Zrotation
						JOINT right_shoulder
						{
							OFFSET	93.9	-5.79999	48.7
							CHANNELS 3  Xrotation Yrotation Zrotation
							JOINT right_elbow
							{
								OFFSET	291.4	-30.8	15.2
								CHANNELS 3  Xrotation Yrotation Zrotation
								JOINT right_lowarm_twist
								{
									OFFSET	110.7	-3.89999	13.6
									CHANNELS 3  Xrotation Yrotation Zrotation
									JOINT right_hand
									{
										OFFSET	110.7	-3.89999	13.6
										CHANNELS 3  Xrotation Yrotation Zrotation
										JOINT right_ee
										{
											OFFSET	80.8	-5.10001	12.1
											CHANNELS 3  Xrotation Yrotation Zrotation
											End Site
											{
												OFFSET	1	0	0
											}
										}
									}
								}
							}
						}
					}
				}
			}
		}
	}
	JOINT left_hip
	{
		OFFSET	-82.8	-127.5	0.300001
		CHANNELS 3  Xrotation Yrotation Zrotation
		JOINT left_knee
		{
			OFFSET	-28.2	-396.7	2.2
			CHANNELS 3  Xrotation Yrotation Zrotation
			JOINT left_ankle
			{
				OFFSET	-11.7	-411.3	35.4
				CHANNELS 3  Xrotation Yrotation Zrotation
				JOINT left_toes
				{
					OFFSET	0	-60	-88.6
					CHANNELS 3  Xrotation Yrotation Zrotation
					JOINT left_foot_ee
					{
						OFFSET	-22.5	-16.5	-42.2
						CHANNELS 3  Xrotation Yrotation Zrotation
						End Site
						{
							OFFSET	1	0	0
						}
					}
				}
			}
		}
	}
	JOINT right_hip
	{
		OFFSET	82.8	-127.5	0.300001
		CHANNELS 3  Xrotation Yrotation Zrotation
		JOINT right_knee
		{
			OFFSET	28.2	-396.7	2.2
			CHANNELS 3  Xrotation Yrotation Zrotation
			JOINT right_ankle
			{
				OFFSET	11.7	-411.3	35.4
				CHANNELS 3  Xrotation Yrotation Zrotation
				JOINT right_toes
				{
					OFFSET	0	-60	-88.6
					CHANNELS 3  Xrotation Yrotation Zrotation
					JOINT right_foot_ee
					{
						OFFSET	22.5	-16.5	-42.2
						CHANNELS 3  Xrotation Yrotation Zrotation
						End Site
						{
							OFFSET	1	0	0
						}
					}
				}
			}
		}
	}
}
MOTION
Frames: 11
Frame Time: 0.02
1214.51410689 733.259 -1702.53811759 2.45666421624 44.7554709473 5.61112050675 2.14425 -0.117948 -2.23497 2.14703 0.0244716 -2.23794 2.14578 0.41242 -2.19977 2.13903 0.0599231 -2.23727 -11.4802 -3.33129 1.81489 -11.4963 -7.48829 0.841755 -0.0 0.0 -0.0 6.21982 -7.13315 11.8673 -27.8107 -12.8071 72.0928 0.617485 -17.0082 0.0923295 5.91596 0.170555 -0.736098 2.08419 -10.5799 9.60976 -0.0 0.0 -0.0 8.47361 5.84945 -16.5943 -20.0055 33.943 -50.9167 0.752018 20.4317 -0.135526 14.9977 -0.282562 1.88953 2.43219 19.9567 -7.65201 0.0 0.0 0.0 13.0522 -25.4368 0.825107 -48.9229 -1.12966 7.19883 26.0732 -8.73916 -3.58014 39.5434 -0.0 -0.0 -0.0 0.0 -0.0 9.33069 14.3614 -16.5225 -9.99802 -0.280782 -1.50674 20.6899 -22.7516 2.92445 33.7449 -0.0 -0.0 0.0 0.0 0.0 
1209.73405918 737.743 -1716.32509546 2.28960715324 46.8610096975 5.82688054713 2.10681 -0.113684 -2.2266 2.10956 0.0281952 -2.22932 2.1082 0.416031 -2.19036 2.10151 0.0649724 -2.22856 -12.0601 -3.63588 1.41797 -12.0865 -7.8062 0.335199 -0.0 0.0 -0.0 5.80481 -6.75603 11.0253 -29.0983 -12.7378 71.9715 0.621628 -17.1156 0.0935451 6.03154 0.173127 -0.75064 2.22138 -10.1668 10.732 -0.0 0.0 -0.0 8.35252 6.48852 -16.3344 -20.077 33.6415 -49.3822 0.747801 20.3265 -0.134058 15.4187 -0.283308 1.94329 2.45214 19.8394 -7.84117 0.0 0.0 0.0 15.5599 -26.6743 1.1754 -49.2423 -1.15682 7.23984 24.8848 -9.52999 -3.45377 39.3914 -0.0 -0.0 -0.0 0.0 -0.0 8.80377 14.4313 -16.5997 -10.1606 -0.283162 -1.53158 21.4404 -23.0081 3.0246 33.5231 -0.0 -0.0 0.0 0.0 0.0 
1199.46801344 728.501 -1731.95316676 3.07375109636 49.0411710702 5.27370585418 2.11032 -0.0987048 -2.25717 2.11316 0.0450877 -2.25888 2.11109 0.437718 -2.21654 2.10425 0.0822563 -2.25783 -11.7269 -3.88441 0.907478 -11.7556 -7.94623 -0.20268 -0.0 0.0 -0.0 5.54859 -6.9978 10.4868 -31.9673 -12.7348 73.2691 0.690137 -18.8743 0.114712 6.70876 0.187604 -0.835936 2.27207 -9.88898 11.2028 -0.0 0.0 -0.0 9.45222 10.0081 -18.6395 -16.9363 34.0533 -48.4543 0.369582 10.375 -0.0335535 15.8836 -0.283673 2.00267 2.28532 19.7342 -6.77953 0.0 0.0 0.0 19.95 -25.9289 0.716083 -48.8662 -1.12486 7.19154 22.8075 -11.3817 -3.23457 38.1512 -0.0 -0.0 -0.0 0.0 -0.0 6.89664 14.6833 -16.7229 -10.0601 -0.281699 -1.51622 26.8077 -23.0881 3.69067 33.006 -0.0 -0.0 0.0 0.0 0.0 
1185.51920658 734.735 -1736.34646669 2.89817865272 50.3584515043 4.84203525615 2.13857 -0.102293 -2.26569 2.14142 0.0420486 -2.26761 2.13945 0.435142 -2.22588 2.13255 0.0782391 -2.26665 -10.2738 -3.68229 0.26329 -10.2906 -7.11535 -0.676985 -0.0 0.0 -0.0 5.41255 -7.13613 10.2 -33.6429 -12.7639 74.2346 0.816933 -22.0323 0.159037 7.95248 0.211561 -0.993 2.41068 -9.63688 12.269 -0.0 0.0 -0.0 10.2463 13.1505 -20.3081 -17.04 33.6285 -47.7004 0.171529 4.85689 -0.00727447 15.4249 -0.283316 1.94409 2.02445 20.3452 -4.75959 0.0 0.0 0.0 24.8256 -25.9278 -0.195725 -48.5857 -1.10124 7.15539 21.355 -12.634 -3.07536 37.3529 -0.0 -0.0 -0.0 0.0 -0.0 5.40877 14.9026 -16.5928 -9.96951 -0.280357 -1.50239 31.385 -23.0309 4.21846 32.6489 -0.0 -0.0 0.0 0.0 0.0 
1170.89332191 739.955 -1746.04258262 1.0364336591 51.440217199 6.56742142488 2.14415 -0.0496796 -2.20042 2.14684 0.0904053 -2.19913 2.14305 0.47076 -2.15007 2.13662 0.125374 -2.19741 -8.4795 -3.68296 -0.421413 -8.48586 -6.59367 -1.24461 -0.0 0.0 -0.0 5.27813 -7.21013 9.9196 -34.9095 -12.7729 74.775 0.909077 -24.2431 0.195251 8.82376 0.22631 -1.10332 2.50157 -9.92067 12.7708 -0.0 0.0 -0.0 10.8296 15.6151 -21.5209 -18.3231 33.0848 -45.1337 0.180968 5.12278 -0.00809557 15.3554 -0.283221 1.93521 1.74524 20.8614 -2.67419 0.0 0.0 0.0 29.3107 -26.8865 1.3054 -48.386 -1.08453 7.12959 20.4199 -12.7315 -2.95707 36.7921 -0.0 -0.0 -0.0 0.0 -0.0 4.31159 14.4831 -16.5838 -4.98419 -0.172887 -0.745148 34.3691 -23.8213 4.56279 32.282 -0.0 -0.0 0.0 0.0 0.0 
1153.31114036 731.295 -1760.74521042 -1.97879541818 51.4043307672 9.38580230618 2.27428 0.0431936 -1.83592 2.27614 0.15991 -1.82945 2.27072 0.471064 -1.775 2.26637 0.184873 -1.8271 -5.14237 -4.00991 -0.337216 -5.13262 -7.12494 -1.04489 -0.0 0.0 -0.0 5.48963 -4.46442 10.4745 -36.6261 -11.8892 73.002 0.786905 -21.2962 0.147951 10.3706 0.248354 -1.29966 2.78936 -11.5503 14.0284 -0.0 0.0 -0.0 11.4413 17.1708 -22.8306 -18.4184 33.0954 -41.4661 0.30051 8.46726 -0.0222454 12.8509 -0.272615 1.61552 1.32543 26.0133 2.42346 0.0 0.0 0.0 36.9442 -29.1564 1.46019 -48.1292 -1.06317 7.09632 17.4225 -5.67665 -2.4695 36.1258 -0.0 -0.0 -0.0 0.0 -0.0 2.26151 14.0803 -16.4788 0.335414 0.0139567 0.0495796 37.692 -27.2323 5.01394 32.4161 -0.0 -0.0 0.0 0.0 0.0 
1143.90243716 731.297 -1767.22155406 -2.03401027659 52.3273145867 9.68574803137 2.03898 0.0381919 -1.65693 2.04049 0.143534 -1.65114 2.03619 0.430899 -1.60039 2.03265 0.172776 -1.64834 -4.37983 -4.31732 -0.418326 -4.36443 -7.59185 -1.13733 -0.0 0.0 -0.0 5.59996 -2.98958 10.7499 -37.2581 -11.2847 71.471 0.643897 -17.6911 0.100206 10.9411 0.255145 -1.37222 2.94316 -12.4495 14.6812 -0.0 0.0 -0.0 11.3517 16.6341 -22.6539 -18.1045 33.2687 -39.9781 0.38594 10.8236 -0.0365623 11.5265 -0.261362 1.44674 1.0815 28.4479 5.08232 0.0 0.0 0.0 39.4194 -29.7059 1.93313 -48.0545 -1.05698 7.08662 15.4967 -2.19557 -2.18873 35.9626 -0.0 -0.0 -0.0 0.0 -0.0 1.4119 13.995 -16.424 1.87311 0.0816536 0.275817 38.7395 -27.746 5.13923 32.4847 -0.0 -0.0 0.0 0.0 0.0 
1109.14755884 730.705 -1781.00020269 -2.92656592801 53.7688299709 10.4514928605 2.00415 0.0645624 -1.31907 2.0051 0.14836 -1.3123 2.00159 0.376955 -1.26572 1.9994 0.172345 -1.30936 -3.79418 -5.41136 -1.51597 -3.76742 -8.71753 -2.40619 -0.0 0.0 -0.0 5.99282 1.56367 11.6252 -37.2389 -12.7561 68.2774 0.486049 -13.5379 0.057691 11.8697 0.264653 -1.49045 3.12553 -13.224 15.5863 -0.0 0.0 -0.0 11.1664 14.715 -22.315 -17.1309 33.7679 -38.8356 0.606035 16.7105 -0.0890089 8.51284 -0.221239 1.06393 0.330702 29.1483 10.1812 0.0 0.0 0.0 43.7373 -30.6053 3.88199 -45.9739 -0.889875 6.81345 13.8739 5.49857 -1.9455 36.6574 -0.0 -0.0 -0.0 0.0 -0.0 0.0893088 15.4842 -17.0763 3.03967 0.137056 0.446219 37.4633 -25.9 4.94576 33.3235 -0.0 -0.0 0.0 0.0 0.0 
1094.0501313 726.548 -1789.25968569 -3.49233353113 54.5366682462 9.90879614558 2.09884 -0.202904 -1.0738 2.09947 -0.134168 -1.08453 2.10199 0.0567802 -1.09132 2.10035 -0.116276 -1.08659 -3.08013 -6.58463 -4.15941 -3.01708 -8.73684 -5.27772 -0.0 0.0 -0.0 6.29912 3.188 12.2236 -36.9454 -13.2257 67.4108 0.470453 -13.1188 0.0540956 12.6782 0.27137 -1.5935 3.48458 -13.3602 18.0362 -0.0 0.0 -0.0 10.7663 10.4374 -21.5156 -16.6325 34.0018 -38.7389 0.96544 25.559 -0.218985 3.30842 -0.104762 0.409535 -0.500728 28.7968 15.4209 0.0 0.0 0.0 42.3589 -32.9941 2.98959 -40.3326 -0.488061 6.04477 6.93998 8.8179 -0.996516 38.6475 -0.0 -0.0 -0.0 0.0 -0.0 -0.247801 17.2096 -15.3678 2.3499 0.103877 0.345595 37.0107 -25.6556 4.89163 32.9261 -0.0 -0.0 0.0 0.0 0.0 
1090.64867438 726.548 -1786.21541014 -3.54669884598 55.1590962174 9.97528680061 2.09884 -0.202904 -1.0738 2.09947 -0.134168 -1.08453 2.10199 0.0567802 -1.09132 2.10035 -0.116276 -1.08659 -3.08013 -6.58463 -4.15941 -3.01708 -8.73684 -5.27772 -0.0 0.0 -0.0 6.29912 3.188 12.2236 -36.9454 -13.2257 67.4108 0.470453 -13.1188 0.0540956 12.6782 0.27137 -1.5935 3.48458 -13.3602 18.0362 -0.0 0.0 -0.0 10.7663 10.4374 -21.5156 -16.6325 34.0018 -38.7389 0.96544 25.559 -0.218985 3.30842 -0.104762 0.409535 -0.500728 28.7968 15.4209 0.0 0.0 0.0 42.3589 -32.9941 2.98959 -40.3326 -0.488061 6.04477 6.93998 8.8179 -0.996516 38.6475 -0.0 -0.0 -0.0 0.0 -0.0 -0.247801 17.2096 -15.3678 2.3499 0.103877 0.345595 37.0107 -25.6556 4.89163 32.9261 -0.0 -0.0 0.0 0.0 0.0 
1073.92731138 734.74 -1792.82355602 -5.00210388313 55.6824587892 10.9383066452 1.87362 -0.403563 -1.03104 1.87415 -0.337141 -1.05462 1.88043 -0.144093 -1.09778 1.87889 -0.315648 -1.06125 -0.911442 -7.90221 -5.74299 -0.796477 -9.53673 -7.02647 -0.0 0.0 -0.0 6.04531 4.26776 11.7407 -36.7998 -13.6439 66.718 0.546193 -15.1401 0.0725876 13.3179 0.275653 -1.67509 3.79968 -14.0528 19.9259 -0.0 0.0 -0.0 10.6593 6.11049 -21.2611 -16.4476 33.9712 -39.2927 1.22195 31.1859 -0.341024 -0.416349 0.0148557 -0.0510962 -1.38443 28.4403 21.1536 0.0 0.0 0.0 40.5878 -34.4459 2.90213 -32.0064 -0.0379982 4.84839 -1.21182 13.5357 0.178537 38.8344 -0.0 -0.0 -0.0 0.0 -0.0 0.350941 18.653 -14.919 1.72029 0.0746533 0.253413 36.6012 -23.0036 4.77355 32.6881 -0.0 -0.0 0.0 0.0 0.0 
